<svg width="646" height="177" viewBox="0 0 646 177" fill="none" xmlns="http://www.w3.org/2000/svg">
<path d="M136.064 0.0078125H62.3335L54.9149 20.5305H119.652C121.849 20.9333 121.413 23.3269 120.481 25.2701L109.602 55.2958C109.229 56.1726 108.13 60.0354 105.312 60.0354H56.9871L69.2548 25.8626H53.0913L40.5956 60.0354H40.5749L33.1562 80.5344H106.887C117.683 80.5344 121.828 67.5241 123.548 62.7844L139.856 17.7578C142.136 10.9327 145.493 0.0078125 136.064 0.0078125Z" fill="red"/>
<path d="M444.792 0.0078125H361.052L337.947 62.7844C337.947 62.7844 329.969 80.5581 341.739 80.5581H415.594L418.392 72.8799L423.034 60.0591H357.322C357.074 60.0591 360.762 50.5561 360.762 50.5561L368.181 30.0572L371.621 20.5542H437.332L444.792 0.0078125Z" fill="yellow"/>
<path d="M372.737 30.0566L365.359 50.5556H426.491L433.909 30.0566H372.737Z" fill="pink"/>
<path d="M465.659 96.293H381.92L358.814 159.07C358.814 159.07 350.836 176.843 362.606 176.843H436.461L439.259 169.165L443.901 156.344H378.19C377.941 156.344 381.63 146.841 381.63 146.841L389.048 126.342L392.488 116.839H458.199L465.639 96.3167L465.659 96.293Z" fill="green"/>
<path d="M393.604 126.342L386.227 146.841H447.337L454.777 126.342H393.604Z" fill="orange"/>
<path d="M307.047 80.5581L336.245 0.0078125H352.906L323.708 80.5581H307.047Z" fill="blue"/>
<path d="M452.792 60.108C449.828 60.2738 451.258 56.8376 451.859 55.3683L472.022 0.0566406H452.916L430.246 62.8569C428.339 67.5966 423.573 81.0335 434.473 80.6069H503.79L512.079 60.108H452.771H452.792Z" fill="skyblue"/>
<path d="M520.388 60.1074L512.078 80.6301H573.583L581.872 60.1311H520.367L520.388 60.1074Z" fill="purple"/>
<path d="M6.6364 176.82C1.35217 176.915 -3.12389 173.834 2.84419 159.07L19.1528 114.043C22.3233 106.175 24.5821 96.3643 35.8137 96.2695H99.3281C102.395 96.2695 104.219 98.1417 104.84 101.886C105.421 105.275 102.312 112.171 100.592 116.911L36.5182 116.816C34.446 116.816 33.6378 120.086 33.099 121.556L22.2197 151.581C20.2096 156.202 21.9711 156.321 22.2197 156.321L87.3091 156.202C85.5891 160.942 82.6465 170.611 79.621 173.976C76.3054 177.697 73.1971 176.82 70.1509 176.82H6.6364Z" fill="red"/>
<path d="M298.307 176.843L320.065 116.816H290.391L297.83 96.293H373.861L366.421 116.816H336.747L314.988 176.843H298.307Z" fill="gray"/>
<path d="M444.38 176.869L462.657 126.391H525.115C525.447 126.391 528.41 126.676 529.55 125.846C530.13 125.42 530.358 125.112 530.876 123.832C530.938 123.69 529.902 126.534 531.829 121.225C532.285 119.993 533.445 116.841 531 116.841H466.118L473.537 96.3184H547.267C556.468 96.3184 551.412 112.836 551.536 112.338C551.536 112.338 542.252 146.914 531.725 146.914H523.934L529.197 176.892H511.355L506.983 146.914H471.817L461.02 176.892H444.359L444.38 176.869Z" fill="yellow"/>
<path d="M546.956 176.843C543.889 176.843 542.065 174.971 541.444 171.25C540.884 167.862 541.444 163.809 543.163 159.093L559.472 114.067C561.192 109.327 564.756 96.293 576.133 96.293H639.647C649.366 96.601 645.16 109.351 643.44 114.067L627.131 159.093C625.411 163.833 621.847 176.701 610.47 176.843H546.956ZM609.745 156.344C610.636 156.249 611.05 157.103 613.164 151.605L624.043 121.579C624.582 120.11 625.991 116.839 624.043 116.839H576.651C576.423 116.839 574.786 116.839 573.232 121.579L562.353 151.605C561.834 153.074 560.425 156.344 562.353 156.344H609.745Z" fill="purple"/>
<path d="M328.04 0.0078125H256.154C245.233 0.0078125 241.565 13.0418 239.887 17.7815L217.258 80.5581L234.105 80.1789L253.356 25.2701C253.874 23.8008 254.745 20.5542 256.693 20.5305L304.707 20.7438C304.707 20.7438 303.463 23.8008 302.945 25.2701L282.699 80.5581H299.443C299.878 80.5581 328.123 0.505475 328.061 0.0078125L328.04 0.0078125Z" fill="pink"/>
<path d="M289.728 96.293H217.841C206.921 96.293 203.253 109.327 201.574 114.067L178.945 176.843L195.793 176.464L215.044 121.555C215.562 120.086 216.432 116.839 218.38 116.816L266.394 117.029C266.394 117.029 265.151 120.086 264.633 121.555L244.387 176.843H261.131C261.566 176.843 289.811 96.7906 289.749 96.293H289.728Z" fill="red"/>
<path d="M234.043 5.57795C233.442 1.83363 231.204 0.00886629 228.137 0.00886629H164.623C153.143 -0.394004 149.682 13.0429 147.962 17.7825L124.773 80.5592L142.035 80.18L161.742 25.2712C162.281 23.8019 163.089 20.4367 165.162 20.5315H212.554C214.73 20.4367 213.424 22.8777 212.554 25.2712L210.772 30.0345H164.623L157.266 50.2491L184.682 50.5572H203.063L200.556 57.2401L191.811 80.5117H208.969C209.425 80.5117 231.95 17.7351 231.95 17.7351C233.276 13.2325 234.644 8.8957 234.064 5.50685L234.043 5.57795Z" fill="blue"/>
<path d="M195.895 101.935C195.294 98.1908 193.056 96.3897 189.989 96.3897H126.474C114.994 95.9869 111.533 109.424 109.813 114.163L86.625 176.94L103.887 176.561L123.594 121.652C124.133 120.183 124.941 116.818 127.013 116.912H174.406C176.581 116.818 175.276 119.259 174.406 121.652L172.623 126.415H126.474L119.118 146.63L146.534 146.938H164.915L162.407 153.621L153.662 176.893H170.821C171.276 176.893 193.802 114.116 193.802 114.116C195.128 109.613 196.496 105.277 195.915 101.888L195.895 101.935Z" fill="#F5FBFE"/>
</svg>
